<svg xmlns="http://www.w3.org/2000/svg" viewBox="0 0 800 548"><path fill="#000000" fill-rule="evenodd" d="M537 546 L537 547 L382 547 L381 546 L381 542 L382 542 L381 541 L381 539 L382 539 L382 537 L381 537 L381 530 L382 530 L382 528 L381 528 L381 518 L382 518 L381 517 L381 506 L382 506 L381 501 L382 501 L382 497 L383 497 L385 491 L388 489 L388 487 L396 481 L407 479 L407 478 L433 478 L433 476 L432 476 L433 475 L433 470 L432 470 L433 468 L432 467 L421 466 L421 465 L411 461 L410 459 L405 457 L402 453 L400 453 L392 445 L392 443 L389 441 L389 439 L386 436 L386 433 L383 429 L382 419 L381 419 L381 413 L382 413 L381 412 L381 400 L382 400 L381 399 L381 395 L382 395 L382 393 L381 393 L381 388 L382 388 L382 386 L381 386 L381 369 L382 369 L381 368 L381 365 L382 365 L382 362 L381 362 L381 359 L382 359 L382 351 L381 351 L381 342 L382 342 L381 341 L381 337 L382 337 L382 335 L381 335 L381 328 L382 328 L382 326 L381 326 L381 321 L382 321 L382 319 L381 319 L381 317 L382 317 L382 315 L381 315 L381 303 L382 303 L381 297 L382 297 L382 295 L381 295 L381 291 L382 291 L382 289 L381 288 L382 288 L382 285 L418 285 L532 285 L532 286 L540 286 L540 287 L545 287 L545 288 L551 288 L551 289 L555 289 L555 290 L558 290 L558 291 L561 291 L561 292 L565 292 L565 293 L567 293 L569 295 L572 295 L576 298 L579 298 L582 301 L586 302 L587 304 L591 305 L593 308 L595 308 L599 312 L601 312 L606 318 L608 318 L614 324 L614 326 L621 332 L621 334 L625 337 L625 339 L627 340 L627 342 L631 346 L632 350 L634 351 L635 356 L637 357 L637 360 L638 360 L638 362 L641 366 L641 369 L642 369 L642 372 L643 372 L643 375 L644 375 L645 383 L646 383 L646 386 L647 386 L647 392 L648 392 L648 401 L649 401 L648 441 L647 441 L647 447 L646 447 L646 450 L645 450 L644 458 L643 458 L643 461 L641 463 L640 469 L637 473 L637 476 L635 477 L633 483 L631 484 L630 488 L628 489 L628 491 L626 492 L624 497 L598 523 L594 524 L592 527 L588 528 L587 530 L583 531 L580 534 L577 534 L574 537 L568 538 L566 540 L563 540 L563 541 L560 541 L560 542 L557 542 L557 543 L554 543 L554 544ZM354 546 L354 547 L277 547 L277 545 L275 544 L275 542 L273 541 L271 536 L268 534 L268 532 L266 531 L264 526 L261 524 L260 520 L257 518 L257 516 L254 514 L253 510 L250 508 L250 506 L247 504 L247 502 L245 501 L243 496 L240 494 L240 492 L238 491 L238 489 L236 488 L234 483 L231 481 L231 479 L229 478 L227 473 L224 471 L223 467 L220 465 L220 463 L217 461 L216 457 L210 451 L210 449 L208 448 L208 446 L206 445 L204 440 L201 438 L201 436 L199 435 L197 430 L194 428 L194 426 L192 425 L190 420 L187 418 L187 416 L185 415 L183 410 L180 408 L180 406 L178 405 L176 400 L173 398 L172 395 L165 395 L165 547 L95 547 L95 286 L96 285 L103 285 L173 285 L174 288 L176 289 L176 291 L178 292 L178 294 L180 295 L180 297 L182 298 L182 300 L184 301 L184 303 L186 304 L186 306 L188 307 L188 309 L191 311 L192 315 L195 317 L196 321 L198 322 L198 324 L200 325 L202 330 L205 332 L206 336 L211 341 L212 345 L215 347 L216 351 L219 353 L219 355 L221 356 L221 358 L225 362 L226 366 L229 368 L229 370 L231 371 L231 373 L233 374 L233 376 L235 377 L235 379 L237 380 L237 382 L239 383 L239 385 L241 386 L241 388 L243 389 L243 391 L245 392 L245 394 L247 395 L247 397 L249 398 L249 400 L251 401 L251 403 L253 404 L253 406 L255 407 L255 409 L257 410 L257 412 L259 413 L259 415 L263 419 L263 421 L266 423 L267 427 L269 428 L269 430 L271 431 L271 433 L273 434 L273 436 L275 437 L277 442 L281 445 L284 445 L284 286 L285 285 L354 285 L355 286 L355 546ZM70 546 L70 547 L0 547 L0 390 L1 390 L1 385 L3 383 L3 380 L4 380 L5 376 L7 375 L12 370 L20 369 L20 368 L28 368 L28 367 L70 367ZM535 480 L540 479 L540 478 L549 477 L549 476 L555 474 L557 471 L559 471 L562 468 L562 466 L565 464 L565 462 L568 458 L569 452 L570 452 L571 442 L572 442 L572 434 L573 434 L573 400 L572 400 L571 385 L570 385 L570 381 L569 381 L567 372 L565 371 L564 367 L558 361 L556 361 L554 358 L551 358 L547 355 L536 354 L536 353 L490 353 L452 353 L452 480ZM69 358 L69 359 L67 359 L67 358 L55 358 L55 357 L43 355 L43 354 L41 354 L39 352 L36 352 L33 349 L29 348 L26 344 L24 344 L17 337 L17 335 L14 333 L13 329 L11 328 L11 326 L10 326 L10 324 L7 320 L6 314 L4 312 L4 308 L3 308 L3 304 L2 304 L2 300 L1 300 L1 295 L0 295 L0 286 L1 286 L1 285 L69 285 L70 286 L70 358ZM699 263 L699 264 L649 263 L649 262 L626 259 L624 257 L616 256 L614 254 L610 254 L610 253 L607 253 L607 252 L605 252 L601 249 L598 249 L597 247 L593 246 L592 244 L590 244 L586 240 L584 240 L581 236 L579 236 L572 229 L572 227 L568 224 L568 222 L565 220 L563 214 L561 213 L561 210 L558 206 L558 203 L557 203 L557 200 L556 200 L556 197 L555 197 L555 193 L554 193 L553 169 L624 169 L624 188 L625 188 L625 190 L627 190 L627 192 L629 192 L630 194 L632 194 L634 196 L642 197 L642 198 L711 199 L711 198 L715 198 L715 197 L720 196 L724 192 L724 190 L726 189 L727 179 L726 179 L725 174 L723 172 L721 172 L720 170 L717 170 L717 169 L714 169 L714 168 L708 168 L708 167 L696 166 L696 165 L680 164 L680 163 L673 163 L673 162 L651 161 L651 160 L646 160 L646 159 L618 158 L618 157 L609 156 L609 155 L605 155 L605 154 L593 151 L593 150 L581 145 L577 141 L575 141 L570 135 L568 135 L564 131 L564 129 L558 123 L558 121 L557 121 L557 119 L554 115 L554 112 L551 108 L549 95 L548 95 L548 71 L549 71 L549 68 L550 68 L550 63 L551 63 L551 60 L553 58 L553 55 L554 55 L557 47 L561 43 L561 41 L566 37 L566 35 L573 28 L575 28 L577 25 L579 25 L580 23 L582 23 L586 19 L588 19 L588 18 L590 18 L590 17 L592 17 L596 14 L599 14 L603 11 L610 10 L610 9 L616 8 L616 7 L621 7 L621 6 L624 6 L624 5 L647 2 L651 2 L651 1 L696 1 L696 2 L702 2 L702 3 L710 3 L710 4 L721 5 L721 6 L725 6 L725 7 L732 8 L734 10 L743 12 L743 13 L749 15 L750 17 L753 17 L754 19 L756 19 L760 23 L762 23 L765 27 L767 27 L774 34 L774 36 L779 40 L780 44 L782 45 L783 49 L785 50 L786 55 L789 59 L791 70 L792 70 L793 95 L722 95 L722 79 L719 76 L719 74 L716 73 L714 70 L712 70 L710 68 L706 68 L706 67 L702 67 L702 66 L634 66 L634 67 L630 67 L630 68 L624 70 L620 75 L619 81 L620 81 L621 87 L625 91 L627 91 L631 94 L660 96 L660 97 L665 97 L665 98 L674 98 L674 99 L681 99 L681 100 L684 100 L684 101 L703 103 L703 104 L707 104 L707 105 L722 106 L722 107 L735 109 L735 110 L747 113 L749 115 L752 115 L752 116 L762 120 L763 122 L767 123 L772 128 L774 128 L777 132 L779 132 L783 136 L783 138 L787 141 L787 143 L790 145 L790 147 L792 148 L792 150 L795 154 L797 164 L798 164 L798 168 L799 168 L799 193 L798 193 L798 197 L797 197 L797 201 L796 201 L796 205 L795 205 L795 208 L793 210 L793 213 L790 216 L790 218 L789 218 L788 222 L786 223 L786 225 L783 227 L783 229 L773 239 L771 239 L769 242 L767 242 L765 245 L763 245 L763 246 L759 247 L758 249 L753 250 L753 251 L751 251 L747 254 L744 254 L742 256 L735 257 L735 258 L732 258 L732 259 L723 260 L723 261 L717 261 L717 262 L712 262 L712 263ZM403 262 L403 263 L382 263 L382 262 L357 260 L357 259 L353 259 L353 258 L350 258 L350 257 L341 256 L339 254 L329 252 L329 251 L327 251 L327 250 L325 250 L325 249 L323 249 L319 246 L316 246 L315 244 L309 242 L308 240 L304 239 L299 234 L297 234 L294 230 L292 230 L277 215 L277 213 L270 206 L270 204 L268 203 L267 199 L265 198 L263 192 L261 191 L261 188 L260 188 L260 186 L257 182 L256 176 L254 174 L253 166 L252 166 L252 163 L251 163 L249 142 L248 142 L248 119 L249 119 L250 105 L251 105 L251 100 L252 100 L252 97 L253 97 L254 89 L256 87 L257 81 L258 81 L258 79 L259 79 L265 65 L267 64 L268 60 L271 58 L273 53 L277 50 L277 48 L292 33 L297 31 L303 25 L307 24 L308 22 L314 20 L317 17 L320 17 L323 14 L326 14 L326 13 L328 13 L330 11 L333 11 L333 10 L337 10 L339 8 L354 5 L354 4 L380 1 L410 1 L410 2 L417 2 L417 3 L424 3 L424 4 L434 5 L434 6 L437 6 L437 7 L441 7 L441 8 L445 8 L447 10 L453 11 L453 12 L458 13 L460 15 L463 15 L464 17 L474 21 L475 23 L477 23 L481 27 L485 28 L509 51 L509 53 L511 54 L511 56 L513 57 L513 59 L516 61 L517 65 L519 66 L519 68 L520 68 L520 70 L523 74 L523 77 L525 78 L526 84 L529 88 L530 96 L531 96 L532 103 L533 103 L534 117 L535 117 L536 140 L535 140 L535 149 L534 149 L532 166 L531 166 L531 169 L530 169 L530 172 L529 172 L529 176 L526 180 L525 186 L523 187 L523 190 L520 193 L520 196 L518 197 L518 199 L516 200 L516 202 L512 206 L512 208 L509 210 L509 212 L505 215 L505 217 L493 229 L491 229 L488 233 L486 233 L484 236 L480 237 L479 239 L477 239 L473 243 L470 243 L469 245 L467 245 L467 246 L465 246 L465 247 L463 247 L459 250 L456 250 L454 252 L451 252 L451 253 L448 253 L448 254 L445 254 L445 255 L442 255 L442 256 L439 256 L439 257 L431 258 L431 259 L411 261 L411 262ZM69 262 L69 263 L0 263 L0 154 L1 154 L1 151 L2 151 L4 145 L8 142 L8 140 L10 140 L13 136 L15 136 L17 134 L24 133 L24 132 L51 132 L52 131 L51 130 L52 121 L47 121 L47 120 L36 118 L33 115 L26 112 L25 110 L23 110 L19 105 L17 105 L13 101 L13 99 L7 93 L7 91 L6 91 L6 89 L3 85 L1 75 L0 75 L0 1 L116 1 L156 1 L156 2 L160 2 L160 3 L170 4 L170 5 L173 5 L175 7 L179 7 L179 8 L189 12 L190 14 L194 15 L195 17 L199 18 L202 22 L204 22 L216 34 L216 36 L222 42 L222 44 L226 48 L226 50 L227 50 L227 52 L228 52 L228 54 L229 54 L229 56 L232 60 L233 66 L235 68 L236 77 L237 77 L237 81 L238 81 L238 88 L239 88 L238 115 L237 115 L236 124 L235 124 L235 127 L233 129 L232 135 L229 139 L229 142 L226 145 L223 152 L218 157 L218 159 L204 173 L202 173 L200 176 L198 176 L197 178 L195 178 L194 180 L192 180 L191 182 L189 182 L189 183 L187 183 L183 186 L180 186 L178 188 L175 188 L175 189 L172 189 L172 190 L169 190 L169 191 L166 191 L166 192 L154 193 L154 194 L70 194 L70 262ZM397 198 L398 197 L410 197 L410 196 L416 196 L416 195 L419 195 L419 194 L427 193 L427 192 L435 189 L436 187 L440 186 L444 181 L446 181 L446 179 L453 172 L453 170 L454 170 L454 168 L457 164 L457 161 L459 159 L461 143 L462 143 L462 121 L461 121 L459 105 L457 103 L456 97 L454 96 L454 94 L453 94 L452 90 L449 88 L449 86 L442 79 L440 79 L439 77 L437 77 L436 75 L434 75 L434 74 L432 74 L428 71 L421 70 L419 68 L405 67 L405 66 L387 66 L371 67 L371 68 L365 68 L365 69 L356 71 L352 74 L349 74 L345 78 L343 78 L333 88 L333 90 L331 91 L329 97 L327 98 L327 102 L326 102 L326 105 L324 107 L323 120 L322 120 L322 143 L323 143 L323 151 L324 151 L324 156 L326 158 L327 165 L330 168 L330 171 L335 176 L335 178 L341 184 L343 184 L347 188 L349 188 L349 189 L351 189 L351 190 L353 190 L357 193 L364 194 L364 195 L367 195 L367 196 L397 197ZM147 131 L156 129 L159 126 L161 126 L163 124 L165 118 L166 118 L167 108 L168 108 L168 93 L167 93 L166 81 L165 81 L163 75 L160 74 L158 71 L155 71 L155 70 L152 70 L152 69 L149 69 L149 68 L91 68 L70 68 L70 131Z"/></svg>