<svg xmlns="http://www.w3.org/2000/svg" viewBox="0 0 800 217"><path fill="#000000" fill-rule="evenodd" d="M104 215 L104 216 L52 216 L15 213 L15 212 L11 212 L11 211 L14 211 L14 210 L11 210ZM100 215 L101 214 L93 214 L92 215ZM63 215 L64 214 L53 214 L52 215ZM119 214 L119 215 L112 215 L105 215ZM117 214 L118 213 L112 213 L111 214ZM41 214 L42 213 L35 213 L34 214ZM129 213 L129 214 L125 214 L120 214ZM126 213 L127 212 L122 212 L121 213ZM29 213 L30 212 L26 212 L25 213ZM138 211 L142 210 L143 211ZM10 211 L7 211 L9 209 L8 208 L6 208 L6 209ZM780 207 L780 208 L776 208 L776 207 L771 207 L771 206 L766 205 L766 199 L768 198 L770 201 L775 202 L775 203 L785 203 L785 202 L790 200 L790 198 L791 198 L791 193 L790 192 L775 189 L770 184 L771 175 L775 171 L784 168 L793 168 L793 169 L799 170 L800 172 L799 172 L799 176 L797 176 L795 174 L792 174 L792 173 L785 172 L785 173 L780 173 L776 177 L776 182 L778 184 L791 186 L797 191 L796 199 L792 204 L790 204 L789 206 L786 206 L786 207ZM601 207 L601 208 L591 207 L591 206 L588 206 L586 203 L587 203 L587 198 L589 200 L593 201 L593 202 L596 202 L596 203 L606 203 L606 202 L610 201 L611 198 L612 198 L612 193 L611 192 L596 189 L591 184 L592 175 L597 170 L603 169 L603 168 L614 168 L614 169 L620 170 L620 176 L617 176 L617 175 L615 175 L613 173 L609 173 L609 172 L601 173 L600 175 L598 175 L597 183 L602 184 L602 185 L607 185 L607 186 L614 187 L617 190 L617 193 L618 193 L617 198 L616 198 L616 200 L613 204 L611 204 L607 207ZM748 206 L748 207 L723 207 L727 184 L746 184 L752 184 L752 188 L732 188 L731 189 L729 202 L749 202 L749 206ZM707 206 L707 207 L701 207 L700 204 L698 203 L698 201 L696 200 L696 198 L694 197 L694 195 L692 194 L692 192 L684 192 L683 200 L682 200 L682 206 L681 207 L676 207 L681 180 L683 168 L696 168 L696 169 L703 170 L706 174 L706 181 L705 181 L704 185 L700 189 L697 190 L697 192 L699 193 L699 195 L701 196 L701 198 L703 199 L703 201 L706 203ZM639 206 L639 207 L634 207 L634 203 L635 203 L635 198 L636 198 L636 192 L637 192 L637 186 L638 186 L638 181 L639 181 L640 169 L658 169 L664 175 L664 181 L663 181 L662 186 L654 192 L641 193 L641 199 L640 199 L640 205ZM571 206 L571 207 L565 207 L562 204 L562 202 L560 201 L560 199 L557 197 L555 192 L552 190 L548 194 L546 207 L541 207 L547 169 L548 168 L553 169 L551 178 L551 181 L550 181 L550 187 L551 187 L563 175 L565 175 L571 168 L577 168 L569 177 L567 177 L561 184 L559 184 L557 186ZM522 206 L522 207 L497 207 L501 184 L520 184 L526 184 L526 188 L505 188 L503 202 L523 202ZM23 206 L24 205 L21 205 L20 206ZM120 205 L121 204 L117 204 L116 205ZM33 205 L34 204 L29 204 L28 205ZM17 205 L18 204 L25 204 L25 203 L37 203 L37 202 L71 201 L114 202 L114 203 L123 203 L123 204 L125 204ZM112 204 L113 203 L102 203 L101 204ZM49 204 L50 203 L39 203 L38 204ZM87 203 L88 202 L67 202 L66 203ZM123 202 L115 200 L115 199 L110 198 L110 197 L107 197 L105 195 L99 194 L97 192 L91 191 L89 189 L80 187 L80 186 L75 185 L73 183 L64 181 L62 179 L56 178 L54 176 L48 175 L46 173 L40 172 L38 170 L32 169 L30 167 L27 167 L27 166 L21 165 L19 163 L13 162 L13 161 L7 159 L3 155 L3 153 L1 151 L1 148 L0 148 L0 141 L1 141 L3 132 L5 130 L5 127 L6 127 L6 124 L8 122 L9 116 L11 114 L13 105 L15 103 L16 97 L18 95 L19 89 L21 87 L22 81 L23 81 L25 73 L27 71 L29 62 L31 60 L32 54 L34 52 L35 46 L37 44 L38 38 L39 38 L41 30 L43 28 L43 25 L44 25 L45 19 L47 17 L48 11 L54 3 L56 3 L58 1 L61 1 L61 0 L68 0 L70 0 L72 2 L75 2 L75 3 L78 3 L80 5 L86 6 L88 8 L97 10 L99 12 L105 13 L107 15 L113 16 L115 18 L121 19 L123 21 L132 23 L134 25 L140 26 L142 28 L148 29 L150 31 L156 32 L158 34 L161 34 L161 35 L167 36 L169 38 L175 39 L177 41 L183 42 L185 44 L191 45 L193 47 L199 48 L202 51 L204 51 L206 53 L206 55 L208 56 L208 58 L209 58 L210 67 L209 67 L208 74 L206 76 L205 82 L203 84 L202 90 L200 92 L200 95 L199 95 L199 98 L197 100 L195 109 L193 111 L192 117 L190 119 L189 125 L187 127 L186 133 L184 135 L183 141 L181 143 L180 149 L178 151 L176 160 L174 162 L173 168 L171 170 L170 176 L168 178 L167 184 L165 186 L165 189 L164 189 L164 192 L162 194 L162 197 L161 197 L160 201ZM651 188 L656 186 L656 184 L658 183 L658 175 L655 174 L655 173 L650 173 L645 173 L643 188ZM694 187 L697 186 L700 183 L701 176 L697 173 L692 173 L687 173 L685 187ZM754 172 L754 173 L729 173 L730 169 L730 168 L754 168 L755 169 L755 172ZM528 172 L528 173 L503 173 L503 169 L504 169 L504 168 L528 168 L529 169ZM727 151 L727 152 L699 152 L698 151 L698 81 L682 81 L681 80 L681 56 L697 56 L744 56 L744 81 L728 81 L728 151ZM556 151 L556 152 L527 152 L527 56 L564 56 L564 57 L569 57 L581 60 L593 69 L593 71 L595 72 L595 74 L598 78 L598 81 L599 81 L600 99 L599 99 L599 104 L598 104 L598 107 L597 107 L595 113 L593 114 L593 116 L589 120 L587 120 L586 122 L584 122 L584 123 L582 123 L578 126 L575 126 L575 127 L557 129 L557 151ZM362 151 L362 152 L333 152 L332 151 L332 56 L363 56 L363 151ZM690 150 L690 151 L619 151 L619 150 L623 149 L624 147 L626 147 L628 145 L634 143 L635 141 L645 137 L646 135 L648 135 L648 134 L650 134 L650 133 L652 133 L652 132 L654 132 L658 129 L658 127 L656 126 L656 124 L654 123 L654 121 L652 120 L652 118 L650 117 L650 115 L648 114 L648 112 L646 111 L646 109 L644 107 L642 108ZM603 150 L603 151 L586 151 L586 150 L587 150 L589 144 L591 143 L597 129 L599 128 L599 126 L600 126 L606 112 L608 111 L611 103 L612 103 L612 101 L614 101 L616 103 L618 108 L621 110 L623 115 L626 117 L627 121 L624 123 L624 125 L620 128 L620 130 L616 133 L616 135 L611 139 L611 141 L607 144 L607 146ZM515 150 L515 151 L461 151 L461 56 L508 56 L514 56 L514 81 L490 81 L490 92 L514 92 L514 115 L490 115 L490 126 L515 126ZM430 150 L430 151 L414 151 L414 150 L409 150 L409 149 L402 148 L402 147 L394 144 L393 142 L391 142 L382 133 L382 131 L380 130 L380 128 L379 128 L379 126 L376 122 L375 116 L374 116 L374 109 L373 109 L374 92 L375 92 L376 85 L377 85 L380 77 L382 76 L382 74 L391 65 L393 65 L394 63 L396 63 L396 62 L398 62 L402 59 L405 59 L405 58 L408 58 L408 57 L413 57 L413 56 L430 56 L430 57 L435 57 L435 58 L442 59 L442 60 L444 60 L444 61 L446 61 L450 64 L452 64 L453 67 L450 70 L447 78 L445 79 L445 81 L444 81 L444 83 L443 83 L443 85 L442 85 L442 87 L440 88 L439 91 L437 89 L435 89 L434 87 L431 87 L431 86 L428 86 L428 85 L416 85 L416 86 L410 88 L405 93 L405 95 L403 97 L403 109 L404 109 L404 112 L406 113 L406 115 L410 119 L412 119 L414 121 L417 121 L417 122 L428 122 L428 121 L434 120 L437 117 L441 116 L444 123 L446 124 L449 132 L451 133 L451 135 L454 139 L454 141 L452 143 L450 143 L449 145 L446 145 L442 148 L438 148 L438 149 L435 149 L435 150ZM298 150 L298 151 L280 151 L280 150 L274 150 L274 149 L266 148 L266 121 L271 121 L271 122 L276 122 L276 123 L290 123 L291 120 L292 120 L291 116 L288 113 L286 113 L282 108 L280 108 L272 100 L272 98 L270 97 L270 95 L267 91 L267 88 L266 88 L266 76 L267 76 L267 72 L268 72 L269 68 L271 67 L271 65 L274 62 L281 59 L281 58 L284 58 L284 57 L287 57 L287 56 L307 56 L307 57 L313 57 L314 58 L314 83 L305 82 L305 83 L300 83 L299 86 L309 96 L311 96 L315 100 L315 102 L318 104 L318 106 L319 106 L319 108 L322 112 L322 116 L323 116 L323 129 L322 129 L322 133 L321 133 L319 139 L312 146 L310 146 L306 149 L303 149 L303 150ZM37 141 L38 140 L50 140 L50 139 L64 139 L64 138 L77 138 L77 137 L125 134 L117 105 L102 108 L102 109 L98 109 L98 110 L95 110 L95 109 L109 103 L110 101 L118 98 L119 96 L121 96 L121 95 L123 95 L123 94 L125 94 L125 93 L127 93 L127 92 L129 92 L129 91 L131 91 L131 90 L145 84 L146 82 L148 82 L148 81 L150 81 L150 80 L152 80 L156 77 L164 74 L165 72 L167 72 L167 71 L169 71 L173 68 L84 75 L84 78 L85 78 L85 81 L86 81 L86 85 L87 85 L87 88 L88 88 L88 92 L89 92 L89 95 L90 95 L90 99 L91 99 L94 111 L92 111 L92 112 L78 118 L77 120 L75 120 L75 121 L73 121 L73 122 L71 122 L71 123 L57 129 L56 131 L54 131 L54 132 L52 132 L52 133 L38 139ZM560 103 L566 101 L568 96 L569 96 L569 89 L568 89 L568 86 L565 83 L557 82 L557 103ZM641 103 L652 91 L655 89 L655 91 L656 91 L656 93 L659 96 L661 101ZM622 85 L622 86 L619 86 L619 85 L621 84 L622 80 L624 79 L624 77 L625 77 L626 73 L628 72 L631 64 L633 63 L635 57 L637 56 L637 58 L639 60 L647 74 L645 74 L645 75 L643 75 L643 76 L641 76 L641 77 L639 77 L639 78 L637 78 L633 81 L630 81 L630 82Z"/></svg>